<svg xmlns="http://www.w3.org/2000/svg" version="1.0" viewBox="0 0 600 600"><path d="M295.5 24c-10 1.7-18 8.2-21.5 17.6-4 10.7-1.8 20.6 6.3 28.9 2.9 2.9 5.7 5.4 6.4 5.6.9.3 1.3 16.5 1.4 69.4.1 37.9.4 71.9.8 75.5l.6 6.5 11.2-.9 11.3-.8.2-74.3.3-74.2 5.2-4.7c7-6.3 9.7-12.2 9.7-21.1.1-5-.5-8.3-2-11.6-5.3-11.4-17.7-18-29.9-15.9"/><path d="M224.8 58c-3.6 1.1-11.1 3.7-16.5 5.9-13 5.2-18.7 6.7-31.3 8.5-18.8 2.7-42.6 3.6-97.7 3.6-60.6 0-56.7-.5-51.7 7s17.6 15 33.1 19.6c7.6 2.3 10.7 2.7 22.5 2.8l13.6.1.7 4c.9 5.8 4.5 10.6 10.1 13.7 4.8 2.6 16.7 5.3 19.6 4.4.7-.2 3.2-.7 5.4-1l4.2-.6 1 4.3c2.5 9.6 10.9 16.5 22.9 18.6 8.3 1.5 17 .1 25.5-4.2l6.6-3.4 1.3 4.4c1.6 6 6.3 12.1 10.4 13.9 4.5 1.8 15.6 1.8 20.1-.1 3.4-1.4 3.7-1.4 6.8 1 4.3 3.3 11.3 4.5 19.1 3.4 5.5-.7 9.9-1.9 26.3-7l3.2-1.1V84.2l-5.4-.4c-7.3-.6-10.3-2.8-13.2-9.6-4.4-10.5-5.9-12.6-11.4-15.5-6.4-3.3-15-3.6-25.2-.7m125.1.8c-4.6 2.4-5.7 3.6-8.1 8.7-6.7 14.1-9.2 16.5-17.5 16.5H320v71.8l9.8 3c15.6 4.9 18.3 5.5 25.2 5.5 6.4 0 11.3-1.6 15.1-4.9 1.4-1.2 2.1-1.2 5.2.1 4.6 1.9 15.7 1.9 20.2.1 4.1-1.8 8.8-7.9 10.4-13.9l1.3-4.4 6.6 3.4c8.9 4.5 16.6 5.8 25.1 4.3 12.4-2.1 20.8-8.9 23.3-18.7.6-2.4 1.1-4.3 1.2-4.3 0 0 2.8.5 6.1 1 15.9 2.6 31.1-5.4 33-17.5l.7-4 13.6-.1c11.8-.1 14.9-.5 22.5-2.8 15.3-4.6 28-12 33-19.4 5.3-7.5 10.2-7-62-7.5-81.3-.6-93.1-1.7-118.2-11.6-23-9.1-32.7-10.3-42.2-5.3M227.8 171c-13 2.3-25 9-29.2 16.2-3.3 5.7-4.8 15.7-3.5 24.3 2.2 15.4 12.2 27.2 31.6 37.2l8.5 4.3 5.4-4.9c7.1-6.5 16.2-11.9 25.3-15.2l7.4-2.6-9.4-1.7c-18.1-3.3-35.7-10.7-40.9-17.3-2.7-3.4-2.5-7.6.3-10.9 3.7-4.2 7.5-3.5 17.1 3 7.5 5.1 13.6 7.5 19.3 7.6 2 0 2.1-.3 1.2-2.9-.6-1.6-2.7-4.8-4.7-7.2l-3.7-4.3 3.4 1.9c1.8 1.1 5.4 4.4 8 7.2 4.6 5.1 4.8 5.2 8.2 4.3 2-.6 4.6-2.1 5.8-3.4 2.1-2.2 2.3-3.3 1.9-8.9-1.1-17.1-13.6-26.4-36.8-27.2-5.8-.2-12.6 0-15.2.5m43.7 16.5c0 1.3-.8 2.1-2.2 2.3-1.9.3-2.3-.1-2.3-2.3s.4-2.6 2.3-2.3c1.4.2 2.2 1 2.2 2.3"/><path d="M347.3 171.5c-12 2.6-21.6 9.9-24.1 18.4-1.5 4.7-1.6 13.6-.2 16.1.5 1 3 2.6 5.5 3.5l4.4 1.7 5-5.3c2.7-3 6.4-6.3 8.2-7.3l3.4-1.9-2.9 2.9c-2.5 2.6-6.6 9.3-6.6 11 0 1.1 9.2-.6 13.5-2.5 2.2-1 6.7-3.7 9.9-5.9 9.4-6.7 15.9-5.5 17.3 3.2.5 3.3.2 4-3.4 7.4-5.3 5.1-17.9 11.5-28.5 14.6-8.9 2.6-18.7 3.9-42.8 5.6-26.1 2-33.2 3.5-45.5 9.9-9.6 4.9-22.1 17.3-26.4 26.2-6 12.3-6.5 27.4-1.1 37.8 2.3 4.5 9.5 11.2 16.5 15.2l4.9 2.8 15.8-8.1 15.8-8.2-5.7-5c-10.9-9.8-14-18.4-9-25.6 5-7.5 11-9.3 37.6-11.5 25-2 38.6-5.3 58.4-14.2 19-8.5 31.1-18.4 36.4-30 3.2-7 4.2-19.5 2.3-28.1-1.7-7.5-9.7-15.8-18.5-19.1-13.4-5.1-27.7-6.3-40.2-3.6m-12.5 15.8c.4 2-2.5 3.4-4 1.9s-.1-4.4 1.9-4c1 .2 1.9 1.1 2.1 2.1m-70.1 25.8c.3 2.2.1 3.9-.6 4.3-1.9 1.2-1.2 4.3 1.2 5 3.8 1 5.3.6 2.7-.7-1.4-.8-2.3-2-2.1-2.8 1.1-4.2 1.1-5.6-.3-7.4-1.4-1.9-1.5-1.8-.9 1.6"/><path d="M336 212c-.6 1.1-.8 3.6-.4 5.5.5 3 .3 3.6-1.7 4.5-2.2 1-2.1 1 .6.5 4.3-.9 5.1-2 3.5-4.9-.7-1.4-1-3.6-.8-5q.9-4.65-1.2-.6m7 55.8c-10.7 2.5-19.7 4.8-20 5-.3.3.2.7 1 1s2.7 1.8 4.2 3.3c2.3 2.3 2.8 3.6 2.8 7.9 0 13.7-6.7 19.5-32.9 28.5-31.7 10.9-48.2 21.8-54.8 36.2-4.7 10.2-3 24.3 4.2 33.7 3.1 4.1 11 9.6 13.7 9.6 1.1 0 7.4-2.8 14-6.2l12.1-6.1-3.7-3c-6.9-5.5-9.3-13.7-6.2-21.1 2.7-6.5 12.3-11.7 34.6-19.1 18.4-6.1 28.7-10.5 37.5-16 17.7-11 23.9-23.7 20.2-41.1-1.3-5.8-6-17.7-7-17.3-.1 0-9 2.2-19.7 4.7"/><path d="M305 272.6c-.8.1-5 .6-9.3.9l-7.9.7.4 15.8c.1 8.7.6 16.1 1 16.5.3.4 3 0 6-.8 2.9-.9 7.9-2.3 11.1-3.2l5.7-1.6V272l-2.7.1c-1.6.1-3.5.3-4.3.5m22.5 66.6c-6 2.3-11.2 4.3-11.4 4.5-.3.2.5 2.3 1.6 4.7 1.2 2.4 2.7 7.1 3.4 10.5 1 5.3.9 6.7-.6 10.6-2.6 6.8-6.3 9.1-27.6 16.8-20.4 7.4-29.9 14-35 24.2-2.1 4.3-2.4 6.4-2.4 15.2 0 9.6.1 10.3 3 14.4 4.9 6.9 4.9 6.9 16.8-.2 9.2-5.5 10.7-6.7 10.1-8.4-.4-1.1-.9-3.8-1.1-6.1-.4-3.3 0-4.6 2.2-7.2 3.5-4.1 13.9-9 29-13.7 20.8-6.4 28.9-10.9 34.4-18.9 8.9-12.9 9.3-31.1 1.1-42.5-3.2-4.3-8.4-8.1-11-8-.8 0-6.4 1.9-12.5 4.1"/><path d="m300 349.4-10.5 4.2-.3 9.4c-.2 5.2 0 10.9.3 12.6l.5 3.2 10.3-3.3 10.2-3.4.7-8.3c.9-11.9.9-18.8.1-18.7-.5.1-5.5 2-11.3 4.3m25.8 58.4-10.6 3.6.5 7.1c.6 7 .5 7.2-2.3 9.2-1.6 1.1-9.9 5.4-18.4 9.5-17.2 8.3-25.2 14.5-28.9 22.1-6 12.4 1.7 24.9 16.2 26.4 6.6.7 7.2-.2 5.1-7.9-3-11.2-3-11.2 16.3-18.9 17.7-7 23.6-10.4 29.2-16.5 5.8-6.4 8.1-12.4 8.1-21.5 0-6.2-2.5-17-3.9-16.8-.3 0-5.4 1.7-11.3 3.7"/><path d="m300 417-9.5 3.8.3 4.8c.2 2.7.6 5.1.8 5.3.1.2 4.4-1.4 9.3-3.5l9.1-3.9v-5.3c0-2.8-.1-5.2-.2-5.1-.2 0-4.6 1.8-9.8 3.9m21.3 40.7L312 462v6.4c0 8.6.1 8.5-30.7 26.5-8.4 4.8-21.3 15-23.6 18.4-1.4 2.2.6 1.6 19.1-5.3 26.6-10 29.7-11.2 38.4-15.6 15.7-7.9 18.8-11.7 18.8-23.5 0-5.9-1.6-14.6-2.9-15.3-.3-.2-4.8 1.7-9.8 4.1"/><path d="m300.5 466.6-8 3.2-.3 6.7-.3 6.8 2.3-1.5c1.3-.8 4.9-3 8.1-4.8 6.6-3.7 7-4.2 6.5-9.7l-.3-3.9zm15.1 31.1c-4.8 2.4-4.9 2.6-3 4 7 5.4 30.1 13.9 32.1 11.9 2.1-2-18.2-18.7-22.5-18.6-1 .1-3.9 1.3-6.6 2.7m-15.4 6.6-7.3 3.1.5 7.6c.4 4.1 1.1 14.9 1.7 24 1.2 19.3 3.3 35.8 4.7 37.2 2.2 2.2 4.4-12.8 6.2-42.2.5-9.1 1.2-20.2 1.5-24.8.4-4.5.5-8.2.3-8.1-.2 0-3.6 1.5-7.6 3.2"/></svg>